<!DOCTYPE svg PUBLIC "-//W3C//DTD SVG 1.1//EN" "http://www.w3.org/Graphics/SVG/1.1/DTD/svg11.dtd">

<!-- Uploaded to: SVG Repo, www.svgrepo.com, Transformed by: SVG Repo Mixer Tools -->
<svg height="800px" width="800px" version="1.1" id="_x32_" xmlns="http://www.w3.org/2000/svg" xmlns:xlink="http://www.w3.org/1999/xlink" viewBox="0 0 512 512" xml:space="preserve" fill="#000000">

<g id="SVGRepo_bgCarrier" stroke-width="0"/>

<g id="SVGRepo_tracerCarrier" stroke-linecap="round" stroke-linejoin="round"/>

<g id="SVGRepo_iconCarrier"> <style type="text/css"> .st0{fill:#94eaff;} </style> <g> <path class="st0" d="M180.242,96.435c26.635,0,48.212-21.596,48.212-48.212C228.454,21.578,206.877,0,180.242,0 c-26.644,0-48.222,21.578-48.222,48.223C132.02,74.839,153.598,96.435,180.242,96.435z"/> <path class="st0" d="M222.019,119.275h-42.274h-42.273c-23.362,0-48.78,25.418-48.78,48.79v162.062 c0,11.681,9.464,21.155,21.145,21.155c5.75,0,0,0,14.764,0l8.04,138.212c0,12.43,10.086,22.507,22.515,22.507 c5.246,0,14.918,0,24.589,0c9.672,0,19.343,0,24.589,0c12.429,0,22.515-10.077,22.515-22.507l8.04-138.212 c14.764,0,9.014,0,14.764,0c11.681,0,21.145-9.474,21.145-21.155V168.065C270.799,144.693,245.382,119.275,222.019,119.275z"/> <path class="st0" d="M360.619,224.327c18.441,0,33.377-14.944,33.377-33.368c0-18.45-14.936-33.386-33.377-33.386 c-18.442,0-33.377,14.936-33.377,33.386C327.242,209.383,342.177,224.327,360.619,224.327z"/> <path class="st0" d="M389.543,240.136h-29.266H331.01c-16.17,0-33.764,17.595-33.764,33.783V386.1 c0,8.085,6.552,14.647,14.638,14.647c3.984,0,0,0,10.221,0l5.562,95.678c0,8.598,6.985,15.575,15.593,15.575 c3.624,0,10.321,0,17.018,0c6.697,0,13.393,0,17.017,0c8.608,0,15.594-6.977,15.594-15.575l5.561-95.678c10.221,0,6.237,0,10.221,0 c8.085,0,14.638-6.562,14.638-14.647V273.919C423.307,257.731,405.713,240.136,389.543,240.136z"/> </g> </g>

</svg>